<svg viewBox="0 0 142 26" id="svg10917844020"><path d="M 40.405 9.363 C 38.269 9.363 37.23 11.135 37.23 13.559 C 37.23 15.984 38.269 17.755 40.405 17.755 C 41.944 17.755 42.929 16.941 43.64 15.496 L 46.68 16.722 C 45.637 19.308 43.473 20.645 40.405 20.645 C 35.912 20.645 33.667 17.429 33.667 13.564 C 33.667 9.699 35.912 6.482 40.405 6.482 C 43.473 6.482 45.637 7.815 46.68 10.405 L 43.64 11.631 C 42.924 10.186 41.939 9.372 40.405 9.372 Z M 52.222 20.435 L 48.826 20.435 L 48.826 6.701 L 52.222 6.701 Z M 69.654 15.517 L 72.661 6.71 L 76.057 6.71 L 68.937 26 L 65.649 26 L 68.033 19.572 L 64.146 9.6 L 59.675 9.6 L 59.675 15.536 C 59.675 17.228 60.336 17.769 61.483 17.769 C 61.951 17.769 62.334 17.688 62.801 17.442 L 63.935 19.889 C 63.202 20.39 62.095 20.654 61.353 20.654 C 58.227 20.654 56.284 18.99 56.284 15.586 L 56.284 9.591 L 54.147 9.591 L 54.147 6.701 L 56.284 6.701 L 56.284 2.751 L 59.68 2.751 L 59.68 6.697 L 66.449 6.697 Z M 90.689 13.564 C 90.689 17.787 88.552 20.645 84.392 20.645 C 82.692 20.645 81.432 19.724 81.05 19.012 L 81.05 20.431 L 77.654 20.431 L 77.654 1.141 L 81.05 1.141 L 81.05 7.954 C 81.653 7.189 82.993 6.482 84.392 6.482 C 88.552 6.482 90.689 9.341 90.689 13.564 Z M 87.131 13.564 C 87.131 10.839 85.705 9.367 83.924 9.367 C 82.143 9.367 80.744 10.839 80.744 13.564 C 80.744 16.288 82.143 17.76 83.924 17.76 C 85.705 17.76 87.131 16.288 87.131 13.564 Z M 96.293 20.431 L 92.898 20.431 L 92.898 1.141 L 96.293 1.141 Z M 112.527 13.564 C 112.527 17.541 109.95 20.645 105.514 20.645 C 101.079 20.645 98.502 17.541 98.502 13.564 C 98.502 9.587 101.079 6.482 105.514 6.482 C 109.954 6.482 112.527 9.587 112.527 13.564 Z M 108.969 13.564 C 108.969 11.3 107.705 9.367 105.514 9.367 C 103.324 9.367 102.065 11.3 102.065 13.564 C 102.065 15.827 103.324 17.76 105.514 17.76 C 107.709 17.76 108.969 15.827 108.969 13.564 Z M 120.957 9.363 C 118.82 9.363 117.781 11.135 117.781 13.559 C 117.781 15.984 118.82 17.755 120.957 17.755 C 122.494 17.755 123.48 16.941 124.19 15.496 L 127.231 16.722 C 126.187 19.308 124.024 20.645 120.957 20.645 C 116.463 20.645 114.218 17.429 114.218 13.564 C 114.218 9.699 116.463 6.482 120.957 6.482 C 124.024 6.482 126.187 7.815 127.231 10.405 L 124.19 11.631 C 123.475 10.186 122.491 9.372 120.957 9.372 Z M 141.818 20.431 L 137.653 20.431 L 132.777 14.49 L 132.777 20.431 L 129.381 20.431 L 129.381 1.141 L 132.777 1.141 L 132.777 12.638 L 137.271 6.701 L 141.462 6.701 L 135.93 13.564 Z M 52.222 4.63 L 48.826 4.63 L 48.826 1.141 L 52.222 1.141 Z M 15.149 15.067 L 6.734 15.067 L 6.734 23.437 L 0 23.437 L 0 8.37 L 15.149 8.37 Z M 16.832 8.37 L 23.565 8.37 L 23.565 23.437 L 8.416 23.437 L 8.416 16.74 L 16.832 16.74 Z M 23.565 6.697 L 16.832 6.697 L 16.832 0 L 23.565 0 Z M 15.149 6.697 L 8.416 6.697 L 8.416 0 L 15.149 0 Z M 6.734 6.697 L 0 6.697 L 0 0 L 6.734 0 Z" fill="var(--token-f0ccf201-71f1-48cf-912b-189ac3e73194, rgb(101, 107, 138))"></path></svg>